<svg xmlns="http://www.w3.org/2000/svg" viewBox="0 0 590.95 590.95" className="logo__icon" data-v-2349e389=""><path width="20px" height="20px" d="M295.47,0C132.29,0,0,132.29,0,295.47s132.29,295.47,295.47,295.47s295.47-132.29,295.47-295.47
    S458.66,0,295.47,0z M221.64,397.6l-2.81,2.82c-5.78,5.81-11.97,11.32-18.4,16.39l-7.35,5.79c-0.49,0.39-1.08,0.59-1.67,0.59
    c-0.5,0-1-0.14-1.45-0.42c-0.98-0.62-1.45-1.75-1.2-2.88l2.93-13.06c3.19-14.24,2.48-29.1-2.05-42.98l-1.57-4.82
    c-1.82-5.58-3.95-11.14-6.33-16.52l-0.01-0.02l-34.16-80.51l-3.66-10.96c-1.13-3.39-1.9-6.91-2.3-10.45l-0.62-5.5
    c-1.74-15.48,3.56-30.7,14.55-41.75l2.81-2.82c5.78-5.81,11.97-11.33,18.4-16.39l7.35-5.79c0.91-0.72,2.13-0.78,3.11-0.16
    c0.98,0.62,1.45,1.75,1.2,2.88l-2.93,13.06c-3.19,14.24-2.49,29.1,2.05,42.98l1.57,4.82c1.82,5.58,3.95,11.14,6.33,16.52
    l34.17,80.52l3.66,10.96c1.13,3.39,1.9,6.91,2.3,10.45l0.62,5.5C237.94,371.34,232.63,386.56,221.64,397.6z M336.99,424.02
    l-3.6,3.62c-7.27,7.31-15.07,14.26-23.17,20.64l-9.61,7.57c-0.54,0.42-1.18,0.64-1.82,0.64c-0.54,0-1.09-0.15-1.58-0.46
    c-1.07-0.67-1.59-1.91-1.31-3.15l3.79-16.91c4.03-17.99,3.14-36.77-2.59-54.29l-2-6.11c-2.31-7.06-4.99-14.08-7.99-20.86l-0.01-0.02
    l-43.09-101.55l-4.61-13.81c-1.42-4.25-2.38-8.65-2.88-13.09l-0.79-7.02c-2.18-19.39,4.46-38.45,18.23-52.28l3.6-3.62
    c7.28-7.31,15.07-14.26,23.17-20.64l9.6-7.57c0.99-0.78,2.33-0.86,3.4-0.18c1.07,0.67,1.59,1.91,1.31,3.15l-3.79,16.91
    c-4.03,17.99-3.14,36.77,2.59,54.29l2,6.11c2.3,7.05,4.99,14.07,7.99,20.86l43.09,101.56l4.61,13.81c1.41,4.25,2.38,8.65,2.88,13.09
    l0.79,7.02C357.39,391.13,350.75,410.19,336.99,424.02z M435.4,397.6l-2.81,2.82c-5.78,5.81-11.97,11.32-18.4,16.39l-7.35,5.79
    c-0.49,0.39-1.08,0.59-1.67,0.59c-0.5,0-1-0.14-1.45-0.42c-0.98-0.62-1.45-1.75-1.2-2.88l2.93-13.06
    c3.19-14.24,2.48-29.1-2.05-42.98l-1.57-4.82c-1.82-5.58-3.95-11.14-6.33-16.52l-0.01-0.02l-34.16-80.51l-3.66-10.96
    c-1.13-3.39-1.9-6.91-2.3-10.45l-0.62-5.5c-1.74-15.48,3.56-30.7,14.55-41.75l2.81-2.82c5.78-5.81,11.97-11.33,18.4-16.39l7.35-5.79
    c0.91-0.72,2.13-0.78,3.11-0.16c0.98,0.62,1.45,1.75,1.2,2.88l-2.93,13.06c-3.19,14.24-2.49,29.1,2.05,42.98l1.57,4.82
    c1.82,5.58,3.95,11.14,6.33,16.52l34.17,80.52l3.66,10.96c1.13,3.39,1.9,6.91,2.3,10.45l0.62,5.5
    C451.69,371.34,446.39,386.56,435.4,397.6z" class="st0" data-v-2349e389=""/></svg>